<?xml version="1.0" standalone="no"?>
<!DOCTYPE svg PUBLIC "-//W3C//DTD SVG 20010904//EN"
 "http://www.w3.org/TR/2001/REC-SVG-20010904/DTD/svg10.dtd">
<svg version="1.0" xmlns="http://www.w3.org/2000/svg"
 width="654.000000pt" height="566.000000pt" viewBox="0 0 654.000000 566.000000"
 preserveAspectRatio="xMidYMid meet">

<g transform="translate(0.000000,566.000000) scale(0.100000,-0.100000)"
fill="#000000" stroke="none">
<path d="M4690 5080 c-101 -18 -200 -41 -204 -49 -3 -4 41 -55 97 -112 96 -98
183 -197 217 -249 8 -12 29 -41 46 -64 36 -47 118 -215 162 -331 33 -86 121
-386 147 -500 56 -248 79 -537 72 -904 -8 -371 -37 -597 -117 -892 -132 -488
-327 -850 -616 -1144 -143 -145 -288 -253 -487 -362 -186 -101 -314 -212 -338
-293 -11 -38 -11 -46 7 -79 64 -120 365 -131 714 -26 537 161 1043 479 1411
888 269 299 458 648 592 1092 105 351 138 568 138 915 0 240 -9 352 -42 520
-162 822 -692 1439 -1354 1575 -94 20 -365 28 -445 15z"/>
<path d="M4154 4875 c-11 -8 -14 -15 -6 -15 8 0 12 -19 12 -60 0 -33 4 -60 10
-60 6 0 10 -9 10 -20 0 -18 7 -20 70 -20 l70 0 0 -35 c0 -34 1 -35 39 -35 38
0 39 1 39 36 0 20 6 40 14 45 24 16 59 9 79 -13 25 -30 24 -38 -5 -38 -13 0
-26 -7 -29 -14 -4 -11 10 -21 49 -36 31 -11 68 -21 82 -22 15 -1 33 -8 41 -16
7 -7 15 -11 18 -8 8 7 -37 47 -47 41 -5 -3 -14 4 -21 17 -11 21 -12 21 -25 3
-8 -10 -16 -16 -19 -13 -3 3 1 11 10 18 21 17 19 30 -5 30 -11 0 -20 4 -20 9
0 4 -13 23 -29 41 -19 22 -34 31 -45 27 -9 -4 -16 -3 -16 2 0 4 -10 7 -21 7
-12 -1 -24 5 -27 13 -3 10 0 12 12 8 10 -4 15 -3 11 3 -3 6 -17 10 -30 10 -13
0 -29 8 -34 18 -5 10 -25 24 -45 32 -20 7 -36 17 -36 22 0 4 -9 8 -20 8 -11 0
-20 7 -20 15 0 19 -40 20 -66 0z"/>
<path d="M4065 4812 c-9 -9 17 -32 36 -32 28 0 23 27 -6 32 -13 3 -27 3 -30 0z"/>
<path d="M2509 4661 c-41 -5 -85 -14 -97 -20 -12 -6 -22 -10 -22 -7 0 4 -35
-8 -95 -33 -11 -5 -43 -18 -72 -29 -28 -11 -84 -40 -123 -64 -40 -24 -80 -47
-89 -53 -9 -5 -51 -35 -91 -65 -78 -57 -120 -97 -120 -112 0 -5 -4 -7 -9 -3
-6 3 -19 -5 -31 -17 -11 -13 -16 -24 -10 -26 15 -5 12 -48 -5 -62 -22 -18 -18
-30 11 -30 14 0 23 -4 19 -10 -4 -6 -10 -8 -15 -5 -5 3 -20 3 -34 -1 -21 -5
-24 -10 -20 -34 4 -19 1 -29 -10 -33 -9 -4 -16 -10 -16 -15 0 -5 -26 -36 -57
-69 -98 -101 -178 -194 -182 -211 -2 -9 -28 -45 -58 -79 l-55 -63 46 0 c39 0
46 -3 46 -20 0 -11 5 -20 10 -20 6 0 10 -9 10 -20 0 -11 5 -20 10 -20 6 0 10
-9 10 -20 0 -16 7 -20 30 -20 27 0 30 -3 30 -30 0 -23 4 -30 20 -30 16 0 20
-7 20 -36 0 -27 7 -43 30 -64 29 -27 42 -80 20 -80 -5 0 -10 -13 -10 -30 0
-23 4 -30 20 -30 11 0 20 -4 20 -10 0 -5 9 -10 20 -10 17 0 20 -7 20 -40 0
-38 2 -40 30 -40 23 0 30 -4 30 -20 0 -13 7 -20 20 -20 18 0 20 -7 20 -60 l0
-60 50 0 50 0 0 -40 c0 -33 3 -40 20 -40 17 0 20 -7 20 -40 0 -33 3 -40 20
-40 17 0 20 -7 20 -40 l0 -40 40 0 40 0 0 -40 0 -40 40 0 40 0 0 -40 0 -40 40
0 40 0 0 -80 c0 -47 4 -80 10 -80 6 0 10 -13 10 -30 0 -22 5 -30 18 -30 18 0
19 25 25 527 10 773 9 1204 -4 1262 -22 104 -84 156 -184 156 -49 0 -70 -6
-119 -33 -32 -18 -60 -32 -62 -29 -4 4 130 137 139 137 3 0 44 29 92 65 105
78 164 112 271 158 109 47 233 77 318 77 47 1 66 4 56 10 -23 13 -175 19 -261
11z m-749 -1501 c0 -13 -7 -20 -20 -20 -13 0 -20 7 -20 20 0 13 7 20 20 20 13
0 20 -7 20 -20z"/>
<path d="M4410 4630 c0 -5 5 -10 11 -10 5 0 7 5 4 10 -3 6 -8 10 -11 10 -2 0
-4 -4 -4 -10z"/>
<path d="M1662 4165 l-33 -23 28 -4 c56 -7 83 14 51 40 -9 7 -23 3 -46 -13z"/>
<path d="M3711 4079 c-116 -22 -215 -106 -328 -278 l-75 -114 1 -1156 c2
-1279 5 -1215 -62 -1303 -42 -55 -110 -101 -184 -124 -70 -21 -65 -18 -57 -37
4 -11 14 -14 40 -10 30 5 34 3 34 -16 0 -14 6 -21 20 -21 22 0 27 -19 9 -37
-8 -8 -8 -13 0 -17 6 -4 11 -15 11 -24 -1 -14 -4 -13 -20 6 -17 21 -22 22 -42
10 l-23 -13 27 -3 c14 -2 29 -9 31 -16 5 -13 -78 -106 -94 -106 -4 0 -10 -9
-14 -19 -3 -11 -18 -24 -33 -30 -31 -12 -58 -29 -85 -53 -11 -10 -24 -15 -28
-12 -11 7 -38 -36 -32 -52 3 -8 19 -14 39 -14 19 0 34 -4 34 -10 0 -5 -9 -10
-20 -10 -13 0 -20 -7 -20 -20 0 -19 7 -20 180 -20 173 0 180 -1 180 -20 0 -18
7 -20 75 -20 66 0 75 -2 75 -19 0 -13 7 -18 27 -17 14 1 28 7 31 14 2 7 -2 10
-12 6 -9 -3 -16 -1 -16 5 0 7 14 11 34 9 26 -1 43 6 72 32 61 53 156 150 206
210 48 58 122 170 112 170 -3 0 2 7 10 15 29 29 106 181 147 291 125 332 184
609 221 1039 16 187 16 853 0 1020 -42 436 -138 677 -296 745 -52 22 -119 30
-175 19z"/>
<path d="M2968 1083 c7 -3 16 -2 19 1 4 3 -2 6 -13 5 -11 0 -14 -3 -6 -6z"/>
<path d="M2720 640 c0 -5 -13 -10 -29 -10 -29 0 -49 -15 -37 -27 10 -10 84 16
90 32 3 9 0 15 -9 15 -8 0 -15 -4 -15 -10z"/>
<path d="M3338 473 c7 -3 16 -2 19 1 4 3 -2 6 -13 5 -11 0 -14 -3 -6 -6z"/>
</g>
</svg>
